<svg xmlns="http://www.w3.org/2000/svg" width="128" height="128" viewBox="0 0 128 128">
  <rect width="128" height="128" rx="16" fill="#4CAF50" />
  <path d="M64 24L96 44V84L64 104L32 84V44L64 24Z" fill="white" />
  <circle cx="64" cy="64" r="12" fill="#4CAF50" />
  <path d="M35 40V32H43V40H35Z" fill="white" />
  <path d="M35 48V56H43V48H35Z" fill="white" />
  <path d="M35 64V72H43V64H35Z" fill="white" />
  <path d="M85 40V32H93V40H85Z" fill="white" />
  <path d="M85 48V56H93V48H85Z" fill="white" />
  <path d="M85 64V72H93V64H85Z" fill="white" />
  <path d="M64 112V94H67V112H64Z" fill="white" />
  <path d="M56 112V94H59V112H56Z" fill="white" />
  <path d="M72 112V94H75V112H72Z" fill="white" />
</svg>